<?xml version="1.0" encoding="UTF-8"?>
<svg id="Lager_1" data-name="Lager 1" xmlns="http://www.w3.org/2000/svg" viewBox="0 0 923.08 254.73">
  <defs>
    <style>
      .cls-1 {
        fill: #fff;
      }

      .cls-2 {
        fill: none;
        stroke: #fff;
        stroke-linejoin: round;
        stroke-width: 10.08px;
      }
    </style>
  </defs>
  <path class="cls-1" d="M27.03,252.72L0,139.36h13.83l15.49,74.31c1.65,7.69,3.09,15.43,4.31,23.2,2.59-12.11,4.12-19.1,4.59-20.95l19.39-76.55h16.26l14.59,57.37c3.66,14.23,6.3,27.61,7.92,40.13,1.3-7.17,2.99-15.39,5.07-24.67l15.98-72.84h13.55l-27.93,113.36h-12.99l-21.47-86.37c-1.81-7.22-2.87-11.65-3.2-13.3-1.06,5.2-2.06,9.64-2.99,13.3l-21.61,86.37h-13.76ZM145.76,252.72v-113.36h13.48v113.36h-13.48ZM183.14,252.72v-113.36h45.16c9.08,0,15.98,1.02,20.7,3.05,4.72,2.04,8.5,5.63,11.33,10.79,2.82,5.15,4.24,10.85,4.24,17.09,0,8.04-2.34,14.82-7.02,20.34-4.68,5.52-11.91,9.02-21.68,10.52,3.57,1.91,6.27,3.79,8.13,5.65,3.94,4.02,7.67,9.05,11.19,15.08l17.72,30.85h-16.95l-13.48-23.58c-3.94-6.8-7.18-12.01-9.73-15.62-2.55-3.61-4.83-6.13-6.84-7.58-2.02-1.44-4.06-2.45-6.15-3.02-1.53-.36-4.03-.54-7.5-.54h-15.63v50.34h-13.48ZM196.62,189.39h28.97c6.16,0,10.98-.71,14.45-2.13,3.48-1.42,6.12-3.68,7.92-6.8,1.8-3.09,2.73-6.6,2.71-10.17,0-5.36-1.75-9.77-5.24-13.22-3.5-3.45-9.02-5.18-16.57-5.18h-32.24v37.5ZM286.04,252.72v-113.36h73.64v13.38h-60.17v34.72h56.35v13.3h-56.35v38.58h62.53v13.38h-76.01ZM374.97,215.83l20.01-2.16c1.21,7.47,3.65,12.96,7.33,16.47,3.68,3.5,8.65,5.26,14.9,5.26,6.62,0,11.61-1.56,14.97-4.68,3.36-3.12,5.04-6.77,5.04-10.94,0-2.68-.71-4.96-2.12-6.84-1.41-1.88-3.88-3.52-7.4-4.91-2.41-.93-7.9-2.58-16.47-4.95-11.02-3.04-18.76-6.78-23.21-11.21-6.25-6.24-9.38-13.84-9.38-22.81,0-5.77,1.47-11.17,4.41-16.2s7.18-8.85,12.71-11.48c5.54-2.63,12.22-3.94,20.04-3.94,12.78,0,22.41,3.12,28.87,9.36,6.46,6.24,9.86,14.56,10.18,24.97l-20.56,1.01c-.88-5.83-2.77-10.02-5.66-12.56-2.9-2.55-7.24-3.83-13.03-3.83s-10.65,1.37-14.04,4.1c-2.18,1.75-3.26,4.1-3.26,7.04,0,2.68,1.02,4.97,3.06,6.88,2.59,2.42,8.89,4.95,18.9,7.58,10.01,2.63,17.4,5.35,22.2,8.16,4.73,2.74,8.62,6.73,11.26,11.52,2.71,4.87,4.06,10.89,4.06,18.06,0,6.5-1.62,12.58-4.86,18.25-3.24,5.67-7.83,9.89-13.76,12.64-5.93,2.76-13.32,4.14-22.16,4.14-12.88,0-22.76-3.31-29.67-9.94-6.9-6.62-11.02-16.28-12.37-28.96h0ZM475.29,252.72v-113.36h20.56v44.62h40.29v-44.62h20.57v113.36h-20.56v-49.56h-40.3v49.56h-20.56ZM669.9,252.72h-22.37l-8.89-25.75h-40.71l-8.41,25.75h-21.81l39.67-113.36h21.75l40.78,113.36ZM632.03,207.87l-14.04-42.07-13.76,42.06h27.79ZM680.94,252.72v-113.36h43.28c10.89,0,18.79,1.02,23.73,3.05,4.93,2.04,8.88,5.66,11.84,10.86,2.97,5.21,4.45,11.16,4.45,17.86,0,8.5-2.25,15.53-6.74,21.07-4.49,5.54-11.21,9.03-20.15,10.48,4.45,2.89,8.12,6.06,11.01,9.51,2.89,3.45,6.8,9.59,11.71,18.4l12.44,22.11h-24.6l-14.87-24.66c-5.28-8.82-8.89-14.37-10.84-16.66-1.95-2.29-4.01-3.87-6.18-4.71-2.18-.85-5.63-1.28-10.35-1.28h-4.17v47.32h-20.57ZM701.51,187.3h15.21c9.86,0,16.03-.46,18.48-1.39,2.41-.89,4.45-2.59,5.77-4.79,1.39-2.27,2.09-5.1,2.09-8.5,0-3.81-.91-6.9-2.74-9.24s-4.41-3.83-7.75-4.44c-1.67-.26-6.67-.39-15.01-.39h-16.05v28.76ZM783.98,252.72v-113.36h20.56v50.34l41.55-50.34h27.65l-38.35,44.15,40.44,69.2h-26.61l-28-53.2-16.68,18.94v34.25h-20.56Z"/>
  <path class="cls-2" d="M1.41,118.68h368.08S379.04,6.6,477.71,5.04c-31.83,49.81-1.87,113.79-1.87,113.79h447.24"/>
</svg>
